<svg width="220" height="541" viewBox="0 0 220 541" fill="none" xmlns="http://www.w3.org/2000/svg">
<g id="balon">
<path id="Vector" d="M113.58 269.685C103.87 283.285 93.78 297.815 92.93 314.465C91.66 340.055 112.13 360.985 121.27 384.925C125.231 395.471 127.024 406.707 126.541 417.961C126.059 429.216 123.31 440.258 118.46 450.425C114 459.645 107.64 468.805 108.46 479.015C108.93 485.245 112.05 490.915 114.56 496.645C120.72 511.005 123.408 526.616 122.406 542.21C121.403 557.804 116.739 572.942 108.79 586.395" stroke="#535461" stroke-width="2" stroke-miterlimit="10"/>
<path id="Vector_2" d="M123.76 277.305H97.28L101.92 261.425H117.8L123.76 277.305Z" fill="#4D8AF0"/>
<path id="Vector_3" d="M219.72 109.865C219.72 170.545 170.53 259.435 109.86 259.435C49.19 259.435 0 170.535 0 109.865C0 80.727 11.575 52.7824 32.1787 32.1787C52.7824 11.575 80.727 0 109.865 0C139.003 0 166.948 11.575 187.551 32.1787C208.155 52.7824 219.73 80.727 219.73 109.865H219.72Z" fill="#6C63FF"/>
<path id="Vector_4" d="M117.8 262.085H101.92L92.65 256.785H127.07L117.8 262.085Z" fill="#535461"/>
<path id="Vector_5" d="M112.38 269.685C102.66 283.235 92.57 297.805 91.74 314.465C90.47 340.055 110.94 360.985 120.08 384.925C124.041 395.471 125.834 406.707 125.351 417.961C124.869 429.216 122.12 440.258 117.27 450.425C112.81 459.645 106.45 468.805 107.27 479.015C107.74 485.245 110.86 490.915 113.37 496.645C119.53 511.005 122.218 526.616 121.216 542.21C120.213 557.804 115.549 572.942 107.6 586.395" stroke="url(#paint0_linear)" stroke-width="2" stroke-miterlimit="10"/>
</g>
<defs>
<linearGradient id="paint0_linear" x1="20870.1" y1="168354" x2="22076.5" y2="168354" gradientUnits="userSpaceOnUse">
<stop stop-color="#808080" stop-opacity="0.25"/>
<stop offset="0.54" stop-color="#808080" stop-opacity="0.12"/>
<stop offset="1" stop-color="#808080" stop-opacity="0.1"/>
</linearGradient>
</defs>
</svg>
